#Produced by polyHédronisme http://levskaya.github.com/polyhedronisme
group dcdI
#vertices
v 0.000014988699623783253 0.00020439006508668982 0.9839327792530587
v 0.16235429012948532 0.5001902380510506 0.8504708095642345
v -0.4253981762358232 0.309095160749707 0.8505228560377301
v -0.42532400410887106 -0.3090281040889003 0.850618498071037
v 0.1624991862290342 -0.4999451794841924 0.850675515096926
v 0.5256972635924623 0.0002551485750632888 0.8506383621255819
v 0.8799925368524041 0.000285296703282013 0.4401563414935472
v 0.6882028935702041 -0.49985610300136396 0.5258335721922829
v 0.9510667153534131 -0.30891928626146054 0.0002508588531040133
v 0.9509581362766932 0.30914075974696353 0.00019479043072619196
v 0.6879781257370134 0.5001648431557056 0.5256830879655688
v 0.27184937048887015 0.8370134332403714 0.43991019362618977
v 0.5876179013791677 0.809024027938729 0.0000351899398662265
v -0.00011431105154955329 0.9998917095397895 -0.0001093346320923951
v -0.2629585943760715 0.809006749725951 0.5255141280540944
v -0.7120735689872498 0.5172291542094662 0.4398211378333079
v -0.5878431283324139 0.8088440941601815 -0.00018516457356982063
v -0.9509940522439307 0.3088629291903908 -0.00014520545865427475
v -0.8506594207680385 -0.00008317656734881489 0.5256023559253545
v -0.7119937586437308 -0.517362010394409 0.4398983592775309
v -0.9509701051001964 -0.3090444103741802 -0.00012471011948414785
v -0.5877369896634995 -0.8090069395697801 -0.00007669582957986018
v -0.2628589805413767 -0.8090322690237362 0.5256815302848645
v 0.2719698158253213 -0.8370165917520678 0.44002292439669916
v 0.00001422485622460586 -0.9999794134286795 0.000004608422792720635
v 0.5878091384706166 -0.8089973054992092 0.00011723151689906869
v 0.7120132219279907 0.5173349030158529 -0.4398380358118419
v 0.8507510681064723 -0.000005799991987585574 -0.5255103025086864
v 0.42545283555142455 0.3089693214005652 -0.8505299439470756
v 0.2628335816785022 0.8089252735415844 -0.52571030139696
v 0.712072543505974 -0.5173513814932575 -0.4398352222488705
v 0.26289695515377104 -0.80904084758049 -0.5256325214983778
v 0.42543434297908117 -0.3090827832175818 -0.8505368035695684
v -0.27200797243547653 0.8368334129953934 -0.4401145275425631
v -0.1624030121753333 0.499883618657806 -0.8506217067689985
v -0.6881260961474523 0.4998068675633558 -0.525770859387069
v -0.8799853503325162 -0.00006272092218901301 -0.440047786189764
v -0.5256671956580737 -0.00006713522219205284 -0.8505956092618118
v -0.6880906851614362 -0.5000074908598733 -0.5257284340046001
v -0.2719046061921068 -0.83702892731866 -0.43996852999615793
v -0.16240711664614327 -0.5000680733328524 -0.8505718062956095
v 0.00008164557802021598 -0.00005575918268152114 -0.9839041325393891
#normal vector defs 
vn -0.24195907227430025 0.17575763408834316 -0.9542353281050896
vn -0.2419489294222435 -0.1758258713358153 -0.9542253290080029
vn 0.09253247643889191 0.2844637467709167 -0.9542107301729202
vn 0.09248949067019657 -0.2845023166057312 -0.9542033986323566
vn 0.29918460330049923 0.00000163857749887809 -0.9541952489638784
vn -0.49109771146692033 0.3567900808040744 -0.7946847651942094
vn -0.49110004540325647 -0.3568312438581952 -0.7946648405532565
vn 0.1876167653212895 0.5773202583452968 -0.7946705409630433
vn 0.18763750284631944 -0.5773915354208581 -0.7946138573860523
vn 0.6072000965949184 -0.0000093493506187717 -0.7945489554506452
vn -0.3975666197063902 0.6543489268425526 -0.6432482140163578
vn -0.06312022355105748 0.7630875076875834 -0.6432054827114092
vn -0.745263496997855 0.17574440932048663 -0.6431922128222024
vn -0.7452546206570141 -0.17582390290090835 -0.6431807720680571
vn -0.3974920995340234 -0.6545137189285255 -0.6431265991563287
vn -0.06307392140129343 -0.7631689116158459 -0.6431134369472845
vn 0.4996691475076743 0.5803304773436846 -0.64307641854993
vn 0.4996962625099204 -0.5803429079685853 -0.6430441309927203
vn 0.7063915164437279 -0.29584288420136723 -0.6430303362701848
vn 0.7063790559954197 0.29591649248760005 -0.6430101544492558
vn -0.5471134963052201 0.7629971636632614 -0.3442414129684227
vn -0.8947928179403948 0.28441604314824737 -0.34417049170749936
vn -0.006089824109807111 0.9388868364035292 -0.344172082642512
vn -0.8947786121266297 -0.28446035050233087 -0.3441708068282863
vn -0.5470315752444551 -0.7630992295563902 -0.34414534943249453
vn -0.005972835029888246 -0.9389304281541061 -0.3440551937234097
vn 0.5566464236697569 0.756173230316412 -0.3440157042469313
vn 0.5567254812820418 -0.7561255868566585 -0.3439924932203502
vn 0.8911557117723383 0.2959351564110828 -0.343895159278936
vn 0.8912001232399908 -0.29583864786003466 -0.34386310469338194
vn -0.7947165728000067 0.5772108535726871 -0.1877583538351935
vn -0.794641037327101 -0.577341168552074 -0.1876773744771456
vn 0.30342994591230626 0.9341992102050155 -0.18762223635800765
vn 0.30356178571678055 -0.934176274990275 -0.1875231438989162
vn 0.9822967230726146 0.00015557304716611362 -0.1873315874000703
vn -0.3051694305095916 0.9388704066188572 -0.15935488149973154
vn -0.9872259289367719 -0.00004354486840432028 -0.15932659331942184
vn -0.30505616358678633 -0.938931520352844 -0.15921161121478808
vn 0.7986264820391245 0.5804310090865071 -0.15904586092266332
vn 0.7987985325248464 -0.5802062101464847 -0.1590020696205092
vn -0.7988001239341616 0.5802045693993159 0.15900006179534248
vn -0.798731302401739 -0.5802795303379507 0.15907222647083644
vn 0.30490231616276625 0.9389955875274457 0.15912845189521396
vn 0.30504213914844247 -0.9389368990201292 0.15920676179800264
vn 0.9872189272828954 0.0001878894087679867 0.15936986638627582
vn -0.30368410898737824 0.9341634133573127 0.18738911145836828
vn -0.9822759335560124 -0.00003185112466707765 0.187440628845964
vn -0.3035588529456709 -0.9341756632742947 0.18753093863237663
vn 0.7944993239058326 0.5775418781580071 0.18765980732937082
vn 0.7946643480950083 -0.5772957792855561 0.1877182918253253
vn -0.5568299229824203 0.7560955461139308 0.3438894619177338
vn -0.8912115206764504 0.2957756967130181 0.3438877180817858
vn 0.005880349290289286 0.9389741084884731 0.34393755985716545
vn -0.8911669900195182 -0.2958741652821509 0.34391841215343877
vn -0.5567313491589229 -0.7561266856801244 0.34398058094327905
vn 0.5469100204930262 0.7632339374822114 0.3440398031619559
vn 0.005974043657540258 -0.9389337280286106 0.3440461672111361
vn 0.5471053417608098 -0.7630190353732916 0.3442058928530988
vn 0.8946639407539309 0.2847659612185815 0.3442161827193837
vn 0.8948234008627393 -0.2841572066471071 0.344304753349347
vn -0.49974550219566394 0.5803943700345485 0.6429594141681129
vn 0.06294795798823404 0.7632861690594747 0.6429866084978927
vn -0.7063975392586633 0.29586603634502057 0.6430130675707858
vn 0.3973811371979099 0.6546514196815476 0.6430550135938842
vn -0.7063258254748574 -0.2958901800569793 0.6430807333555482
vn -0.49967560779626496 -0.5802924351318507 0.6431057274680269
vn 0.0630848896404617 -0.7631050927026076 0.6431880861695088
vn 0.7451673258075847 0.17618967892812878 0.6431818200073568
vn 0.3975323573888287 -0.6544546499679191 0.6431618271976727
vn 0.7452604888689583 -0.17559540253390976 0.6432363938240401
vn -0.18769881218408177 0.5775229403002153 0.7945038762219342
vn -0.6071437713992933 0.000050092353598992034 0.7945919948890743
vn 0.4910045214848214 0.35711871993000865 0.7945947267362236
vn -0.1875983339412984 -0.5773676497793064 0.7946404608945917
vn 0.49115153184214877 -0.35656866798666564 0.7947508778097235
vn -0.09248569901604978 0.2847187800392982 0.9541391993679152
vn 0.24192711242566578 0.17614764821470622 0.9541715140905264
vn -0.2991579098775597 0.00011174598832482284 0.9542036116419408
vn -0.09242220093102857 -0.28427788803961934 0.954276804259015
vn 0.2419816182251154 -0.17563324182772544 0.9542525141733911
#face defs 
f 42//1 38//1 35//1 
f 42//2 41//2 38//2 
f 42//3 35//3 29//3 
f 41//4 42//4 33//4 
f 33//5 42//5 29//5 
f 38//6 36//6 35//6 
f 41//7 39//7 38//7 
f 35//8 30//8 29//8 
f 41//9 33//9 32//9 
f 33//10 29//10 28//10 
f 35//11 36//11 34//11 
f 35//12 34//12 30//12 
f 38//13 37//13 36//13 
f 38//14 39//14 37//14 
f 41//15 40//15 39//15 
f 40//16 41//16 32//16 
f 29//17 30//17 27//17 
f 32//18 33//18 31//18 
f 31//19 33//19 28//19 
f 28//20 29//20 27//20 
f 34//21 36//21 17//21 
f 36//22 37//22 18//22 
f 30//23 34//23 14//23 
f 37//24 39//24 21//24 
f 39//25 40//25 22//25 
f 40//26 32//26 25//26 
f 27//27 30//27 13//27 
f 32//28 31//28 26//28 
f 28//29 27//29 10//29 
f 31//30 28//30 9//30 
f 36//31 18//31 17//31 
f 39//32 22//32 21//32 
f 30//33 14//33 13//33 
f 32//34 26//34 25//34 
f 28//35 10//35 9//35 
f 34//36 17//36 14//36 
f 37//37 21//37 18//37 
f 40//38 25//38 22//38 
f 27//39 13//39 10//39 
f 26//40 31//40 9//40 
f 17//41 18//41 16//41 
f 21//42 22//42 20//42 
f 13//43 14//43 12//43 
f 25//44 26//44 24//44 
f 9//45 10//45 7//45 
f 17//46 15//46 14//46 
f 21//47 19//47 18//47 
f 25//48 23//48 22//48 
f 13//49 11//49 10//49 
f 26//50 9//50 8//50 
f 17//51 16//51 15//51 
f 18//52 19//52 16//52 
f 14//53 15//53 12//53 
f 21//54 20//54 19//54 
f 22//55 23//55 20//55 
f 13//56 12//56 11//56 
f 25//57 24//57 23//57 
f 24//58 26//58 8//58 
f 10//59 11//59 7//59 
f 8//60 9//60 7//60 
f 15//61 16//61 3//61 
f 12//62 15//62 2//62 
f 16//63 19//63 3//63 
f 11//64 12//64 2//64 
f 19//65 20//65 4//65 
f 20//66 23//66 4//66 
f 23//67 24//67 5//67 
f 7//68 11//68 6//68 
f 24//69 8//69 5//69 
f 8//70 7//70 6//70 
f 15//71 3//71 2//71 
f 19//72 4//72 3//72 
f 6//73 11//73 2//73 
f 23//74 5//74 4//74 
f 8//75 6//75 5//75 
f 2//76 3//76 1//76 
f 6//77 2//77 1//77 
f 3//78 4//78 1//78 
f 4//79 5//79 1//79 
f 5//80 6//80 1//80 
